<svg width="210" height="35" viewBox="0 0 210 35" fill="none" xmlns="http://www.w3.org/2000/svg">
<g clip-path="url(#clip0_47_9543)">
<path d="M94.2165 0H207.872C208.436 0 208.978 0.227787 209.377 0.633252C209.776 1.03872 210 1.58864 210 2.16206V32.8379C210 33.4114 209.776 33.9613 209.377 34.3667C208.978 34.7722 208.436 35 207.872 35H94.2165V0Z" fill="#31363F"/>
<path d="M107.705 26.1922C106.944 26.1924 106.185 26.1428 105.43 26.0437C104.728 25.9568 104.041 25.7717 103.389 25.4936C102.819 25.2587 102.318 24.88 101.933 24.3933C101.549 23.8604 101.358 23.2096 101.391 22.5503V6.59619H105.366V14.2322L104.607 12.9338C104.951 12.5329 105.378 12.2152 105.858 12.0041C106.355 11.7799 106.877 11.6173 107.412 11.52C107.843 11.4396 108.279 11.3936 108.717 11.3824C110.753 11.3824 112.302 12.0059 113.363 13.2529C114.424 14.4999 114.955 16.3209 114.955 18.7158C114.988 19.9204 114.805 21.1211 114.414 22.2587C114.103 23.1419 113.58 23.9323 112.892 24.5583C112.226 25.1356 111.444 25.5598 110.602 25.8016C109.659 26.0712 108.684 26.2027 107.705 26.1922ZM107.651 22.7649C108.319 22.7975 108.982 22.6291 109.557 22.2807C110.028 21.9541 110.387 21.4843 110.58 20.9384C110.795 20.3071 110.9 19.6424 110.889 18.9744C110.922 18.1152 110.784 17.2581 110.482 16.4547C110.264 15.892 109.873 15.4156 109.367 15.0959C108.87 14.8165 108.31 14.6742 107.743 14.6833C107.34 14.6867 106.939 14.7328 106.546 14.8208C106.133 14.9048 105.737 15.0552 105.371 15.2664V21.461C105.362 21.605 105.385 21.7491 105.438 21.8831C105.49 22.0172 105.571 22.1379 105.674 22.2367C105.911 22.4412 106.197 22.5795 106.503 22.6383C106.876 22.7231 107.257 22.7655 107.64 22.7649H107.651Z" fill="white"/>
<path d="M123.965 26.1922C121.644 26.1922 119.897 25.5614 118.724 24.2997C117.55 23.0381 116.964 21.1786 116.964 18.7213C116.964 16.0843 117.559 14.19 118.751 13.0383C119.942 11.8867 121.68 11.3091 123.965 11.3054C125.302 11.2614 126.631 11.5326 127.847 12.0976C128.881 12.6114 129.715 13.4641 130.214 14.5182C130.798 15.8374 131.074 17.2758 131.02 18.7213C131.02 21.1749 130.412 23.0344 129.196 24.2997C127.979 25.5651 126.236 26.1959 123.965 26.1922ZM123.965 22.8914C124.559 22.9154 125.146 22.7458 125.638 22.4072C126.107 22.0503 126.458 21.5573 126.645 20.9934C126.892 20.259 127.007 19.4859 126.987 18.7103C127.016 17.8802 126.901 17.0512 126.645 16.2622C126.467 15.721 126.107 15.2612 125.627 14.9638C125.119 14.6817 124.545 14.543 123.965 14.5622C123.369 14.537 122.777 14.6839 122.259 14.9858C121.799 15.2996 121.457 15.7633 121.29 16.3007C121.059 17.0853 120.955 17.9028 120.982 18.7213C120.982 20.1242 121.22 21.1749 121.702 21.8626C121.961 22.2168 122.305 22.498 122.701 22.6799C123.097 22.8618 123.532 22.9384 123.965 22.9024V22.8914Z" fill="white"/>
<path d="M140.036 26.1922C137.708 26.1922 135.964 25.5651 134.789 24.2997C133.614 23.0344 133.035 21.1749 133.035 18.7213C133.035 16.0843 133.63 14.19 134.822 13.0383C136.013 11.8867 137.751 11.3091 140.036 11.3054C141.373 11.2614 142.702 11.5326 143.918 12.0976C144.951 12.6132 145.784 13.4654 146.285 14.5182C146.869 15.8374 147.145 17.2758 147.091 18.7213C147.091 21.1749 146.483 23.0344 145.267 24.2997C144.05 25.5651 142.307 26.1959 140.036 26.1922ZM140.036 22.8914C140.63 22.9154 141.217 22.7458 141.709 22.4072C142.178 22.0503 142.529 21.5573 142.716 20.9934C142.963 20.259 143.078 19.4859 143.058 18.7103C143.087 17.8802 142.972 17.0512 142.716 16.2622C142.532 15.7303 142.172 15.2795 141.698 14.9858C141.189 14.7037 140.616 14.565 140.036 14.5842C139.446 14.5579 138.861 14.7009 138.347 14.9968C137.885 15.309 137.542 15.7733 137.377 16.3117C137.144 17.0959 137.038 17.9135 137.063 18.7323C136.987 19.8298 137.24 20.925 137.789 21.8736C138.048 22.2233 138.39 22.5009 138.783 22.6807C139.176 22.8605 139.607 22.9368 140.036 22.9024V22.8914Z" fill="white"/>
<path d="M153.925 25.7797H149.875V6.4917H153.957L153.925 25.7797ZM153.053 18.0777L158.121 11.7951H163.049L155.398 19.9977L153.053 18.0777ZM156.134 16.2787L163.412 25.7797H158.262L153.248 19.0569L156.134 16.2787Z" fill="white"/>
<path d="M165.908 9.86953V6.6842H170.104V9.86953H165.908ZM165.989 25.7796V11.9711H170.05L170.077 25.7796H165.989Z" fill="white"/>
<path d="M173.7 12.9668C174.139 12.7495 174.593 12.5656 175.059 12.4167C175.668 12.2111 176.288 12.0403 176.916 11.905C177.587 11.7565 178.259 11.6355 178.941 11.5419C179.569 11.456 180.202 11.4101 180.836 11.4044C181.908 11.3804 182.976 11.5442 183.993 11.8885C184.813 12.1712 185.518 12.7227 185.996 13.4564C186.504 14.3444 186.744 15.3635 186.689 16.3887V25.7961H182.634V17.1864C182.639 16.8572 182.587 16.5296 182.482 16.2181C182.39 15.9325 182.237 15.6713 182.033 15.4535C181.802 15.2253 181.522 15.0556 181.215 14.9583C180.811 14.8285 180.388 14.7672 179.964 14.7768C179.541 14.7768 179.119 14.8285 178.708 14.9308C178.379 14.9993 178.06 15.1064 177.755 15.2499V25.7631H173.7V12.9668Z" fill="white"/>
<path d="M195.57 26.1922C194.434 26.1576 193.321 25.8544 192.321 25.3065C191.411 24.7808 190.68 23.9865 190.225 23.0289C189.685 21.8373 189.427 20.5333 189.473 19.222C189.438 17.9139 189.633 16.61 190.047 15.371C190.364 14.4467 190.913 13.6221 191.639 12.9779C192.359 12.3857 193.204 11.9698 194.108 11.762C195.16 11.5093 196.238 11.3873 197.319 11.3989C198.334 11.3791 199.346 11.5297 200.313 11.8446C201.077 12.0806 201.764 12.5193 202.306 13.1154C202.781 13.6858 203.032 14.4148 203.01 15.1619V25.9557C203.028 26.8402 202.872 27.7195 202.549 28.5414C202.25 29.2752 201.777 29.9231 201.174 30.4283C200.521 30.9577 199.77 31.347 198.965 31.5726C197.996 31.8469 196.993 31.9784 195.987 31.9632C194.941 31.9785 193.896 31.8901 192.868 31.6992C192.181 31.5843 191.515 31.3655 190.891 31.05V27.4246C191.162 27.5346 191.563 27.6831 192.088 27.8647C192.666 28.0622 193.258 28.2148 193.859 28.3213C194.505 28.4414 195.161 28.5022 195.819 28.5028C196.496 28.537 197.171 28.4147 197.795 28.1453C198.219 27.9438 198.561 27.5999 198.764 27.1715C198.951 26.7364 199.044 26.2654 199.035 25.7907V23.5131L199.826 24.0907C199.538 24.5087 199.189 24.8798 198.791 25.191C198.369 25.5172 197.895 25.7667 197.389 25.9282C196.799 26.1083 196.186 26.1973 195.57 26.1922ZM196.604 23.0949C197.045 23.0995 197.486 23.0478 197.914 22.9409C198.313 22.8402 198.697 22.6867 199.057 22.4843V16.0861C199.068 15.9236 199.044 15.7605 198.988 15.6078C198.932 15.4551 198.845 15.3162 198.732 15.2004C198.499 14.9935 198.217 14.8513 197.914 14.7878C197.574 14.7141 197.228 14.6773 196.88 14.6778C196.18 14.634 195.484 14.8275 194.904 15.2279C194.408 15.6155 194.046 16.1529 193.869 16.7628C193.65 17.484 193.544 18.236 193.555 18.9909C193.497 20.0635 193.795 21.125 194.4 22.0057C194.655 22.3532 194.988 22.6335 195.371 22.8231C195.755 23.0126 196.178 23.1059 196.604 23.0949Z" fill="white"/>
<path d="M2.12799 0H94.6443V35H2.12799C1.56362 35 1.02235 34.7722 0.623275 34.3667C0.224199 33.9613 0 33.4114 0 32.8379L0 2.16206C0 1.58864 0.224199 1.03872 0.623275 0.633252C1.02235 0.227787 1.56362 0 2.12799 0V0Z" fill="#DADADA"/>
<path d="M14.322 26.1922C13.3254 26.2031 12.3317 26.0829 11.3655 25.8346C10.5088 25.6195 9.71223 25.2073 9.03717 24.6298C8.34205 24.0028 7.81324 23.2082 7.49939 22.3192C7.10049 21.1455 6.91696 19.9073 6.95791 18.6663C6.95791 16.3997 7.49939 14.6099 8.58233 13.2969C9.66528 11.9839 11.3132 11.3292 13.526 11.3329C13.8184 11.3329 14.1974 11.3604 14.6739 11.4044C15.1756 11.4558 15.6688 11.5723 16.1413 11.751C16.6665 11.9436 17.1357 12.2671 17.5058 12.6918L16.672 13.9626V6.01855H20.7005V22.1377C20.715 22.7758 20.525 23.4014 20.1591 23.9201C19.7753 24.4483 19.2769 24.8794 18.7025 25.18C18.0621 25.5229 17.3791 25.7764 16.672 25.9337C15.9002 26.1063 15.1122 26.193 14.322 26.1922ZM14.4844 22.7373C15.0378 22.7603 15.5901 22.6705 16.1088 22.4733C16.27 22.4154 16.4101 22.3093 16.5107 22.1688C16.6112 22.0284 16.6675 21.8602 16.672 21.6866V15.2334C16.3404 15.0486 15.9876 14.9063 15.6215 14.8098C15.2691 14.7087 14.9047 14.6569 14.5386 14.6558C13.8722 14.635 13.2097 14.7666 12.6001 15.0409C12.0618 15.3127 11.6414 15.777 11.4197 16.3447C11.1249 17.1286 10.9904 17.9654 11.0244 18.8038C11.0076 19.5149 11.1177 20.2232 11.3493 20.8944C11.5505 21.4576 11.9318 21.9361 12.4322 22.2532C13.0638 22.6125 13.7835 22.7805 14.5061 22.7373H14.4844Z" fill="#1D1D1B"/>
<path d="M24.3176 9.86953V6.6842H28.514V9.86953H24.3176ZM24.3988 25.7796V11.9711H28.4599V25.7796H24.3988Z" fill="#1D1D1B"/>
<path d="M37.3942 26.1922C36.2581 26.1584 35.1455 25.855 34.1453 25.3065C33.2354 24.7794 32.5031 23.9856 32.0444 23.0289C31.5079 21.836 31.2521 20.5326 31.2972 19.2219C31.2602 17.9137 31.4546 16.6093 31.8711 15.3709C32.1849 14.4446 32.7341 13.619 33.4631 12.9778C34.1816 12.3858 35.0246 11.9698 35.9268 11.762C36.9806 11.5095 38.0605 11.3876 39.1432 11.3989C40.1586 11.3795 41.1702 11.53 42.1375 11.8445C42.9003 12.079 43.5867 12.518 44.1247 13.1153C44.6016 13.6852 44.8542 14.4141 44.8341 15.1618V25.9556C44.8527 26.8401 44.6962 27.7194 44.3738 28.5413C44.0722 29.274 43.6003 29.9215 42.9985 30.4283C42.3444 30.9554 41.5933 31.3445 40.7892 31.5726C39.8182 31.8468 38.8135 31.9784 37.8057 31.9632C36.7601 31.9782 35.7155 31.8898 34.6868 31.6991C34.0015 31.5844 33.3371 31.3655 32.7158 31.0499V27.4245C32.9866 27.5345 33.3873 27.6831 33.9125 27.8646C34.4901 28.0634 35.0821 28.2161 35.6831 28.3212C36.3298 28.4416 36.9858 28.5024 37.6433 28.5028C38.3202 28.5363 38.9958 28.4141 39.6196 28.1452C40.042 27.9435 40.3826 27.5994 40.5835 27.1714C40.7741 26.7373 40.8684 26.2659 40.8596 25.7906V23.513L41.6448 24.0906C41.3586 24.51 41.0097 24.8812 40.6105 25.1909C40.1892 25.5182 39.7145 25.7678 39.2081 25.9281C38.6199 26.1078 38.0084 26.1968 37.3942 26.1922ZM38.4284 23.0949C38.8681 23.0998 39.3065 23.0481 39.7334 22.9408C40.134 22.8402 40.5199 22.6867 40.8813 22.4842V16.0861C40.8913 15.9231 40.867 15.7598 40.8101 15.6071C40.7531 15.4543 40.6648 15.3157 40.551 15.2004C40.3194 14.9915 40.0371 14.8491 39.7334 14.7878C39.3935 14.7137 39.0468 14.6768 38.6991 14.6777C37.9987 14.6348 37.3039 14.8282 36.7228 15.2279C36.2301 15.6185 35.8688 16.1548 35.6885 16.7628C35.4732 17.4848 35.3691 18.2364 35.3799 18.9908C35.3226 20.0625 35.6179 21.1232 36.2192 22.0056C36.4744 22.3539 36.8084 22.6347 37.1929 22.8243C37.5774 23.0139 38.0012 23.1067 38.4284 23.0949Z" fill="#1D1D1B"/>
<path d="M48.2616 9.86953V6.6842H52.4526V9.86953H48.2616ZM48.3428 25.7796V11.9711H52.4093L52.4364 25.7796H48.3428Z" fill="#1D1D1B"/>
<path d="M61.6902 26.3353C60.0658 26.3353 58.9016 25.9502 58.1219 25.1856C57.7144 24.7563 57.3995 24.2455 57.1972 23.6857C56.9949 23.1259 56.9097 22.5294 56.9469 21.9342V14.9309H54.9326V11.7786H56.9469V7.92761H61.1975V11.7786H64.2189V14.9309H61.1975V21.4061C61.1669 21.7867 61.2727 22.1657 61.4953 22.4733C61.629 22.6009 61.7881 22.6978 61.9619 22.7576C62.1356 22.8174 62.3199 22.8386 62.5024 22.8199C62.8088 22.8144 63.1124 22.7587 63.4013 22.6549C63.6935 22.5595 63.9694 22.4184 64.2189 22.2368V25.7797C63.8315 25.9862 63.4151 26.1309 62.9844 26.2088C62.5576 26.2902 62.1245 26.3326 61.6902 26.3353Z" fill="#1D1D1B"/>
<path d="M72.6117 26.1923C71.8291 26.204 71.0472 26.1359 70.278 25.9888C69.5936 25.8481 68.9392 25.5855 68.3449 25.2131C67.7906 24.8515 67.3433 24.3438 67.0508 23.7442C66.7207 23.0215 66.563 22.2298 66.5905 21.4336C66.5766 20.6434 66.7631 19.8628 67.132 19.167C67.5016 18.5042 68.0711 17.9796 68.7564 17.6706C69.6241 17.2922 70.5635 17.1137 71.5071 17.148C72.1115 17.1447 72.7144 17.2093 73.3048 17.3405C73.846 17.454 74.3728 17.6293 74.8751 17.8632C75.2692 18.0476 75.6342 18.2905 75.958 18.5839L76.1205 20.5754C75.7135 20.3361 75.2737 20.16 74.8155 20.0527C74.2841 19.9201 73.7384 19.8554 73.1911 19.8602C72.5198 19.8111 71.848 19.948 71.2472 20.2563C71.0434 20.3916 70.8788 20.5797 70.7703 20.8011C70.6618 21.0225 70.6134 21.2693 70.6299 21.5161C70.6264 21.855 70.733 22.1857 70.9332 22.4568C71.138 22.7399 71.4151 22.9605 71.7345 23.095C72.0659 23.2415 72.4236 23.3164 72.785 23.3151C73.4388 23.3482 74.0938 23.2833 74.7289 23.1225C74.8926 23.0752 75.0355 22.9725 75.134 22.8315C75.2324 22.6904 75.2806 22.5194 75.2704 22.3468V17.1865C75.3003 16.835 75.242 16.4816 75.1009 16.1593C74.9598 15.837 74.7405 15.5563 74.4636 15.3435C73.7777 14.9307 72.9848 14.7389 72.1894 14.7934C71.3681 14.7975 70.5535 14.9425 69.7798 15.2225C69.0694 15.4567 68.4017 15.808 67.8034 16.2623V12.6093C68.4834 12.2304 69.2126 11.9508 69.9693 11.7786C71.0607 11.5069 72.1813 11.3757 73.3048 11.388C73.7886 11.3923 74.2716 11.429 74.7506 11.498C75.2895 11.5777 75.8192 11.7123 76.3317 11.8996C76.86 12.0981 77.3522 12.3844 77.7882 12.7469C78.246 13.1304 78.6156 13.6111 78.8712 14.1552C79.1619 14.8269 79.3007 15.5563 79.2773 16.2898V22.8915C79.2906 23.2506 79.2268 23.6084 79.0902 23.94C78.9537 24.2715 78.7478 24.5689 78.4867 24.8114C77.8341 25.364 77.0497 25.7321 76.2125 25.8787C75.0266 26.113 73.8196 26.2181 72.6117 26.1923Z" fill="#1D1D1B"/>
<path d="M86.9066 25.7797H82.878V6.4917H86.9066V25.7797Z" fill="#1D1D1B"/>
</g>
<defs>
<clipPath id="clip0_47_9543">
<rect width="210" height="35" fill="white"/>
</clipPath>
</defs>
</svg>
