<svg width="166" height="71" viewBox="0 0 166 71" fill="none" xmlns="http://www.w3.org/2000/svg">
<g clip-path="url(#clip0_47_9527)">
<path d="M96.2501 0H1.85564C0.830799 0 0 0.82771 0 1.84874V24.4976C0 25.5186 0.830799 26.3463 1.85564 26.3463H96.2501C97.275 26.3463 98.1058 25.5186 98.1058 24.4976V1.84874C98.1058 0.82771 97.275 0 96.2501 0Z" fill="#1D1D1B"/>
<path d="M10.3207 61.7632C9.07707 61.7636 7.83483 61.6803 6.60247 61.5139C5.45432 61.3755 4.33137 61.0771 3.26648 60.6276C2.33472 60.2496 1.51621 59.6392 0.889596 58.855C0.261995 58.0053 -0.0522092 56.966 -1.62143e-06 55.9123V30.4038H6.49127V42.6388L5.24722 40.5615C5.80794 39.9209 6.50634 39.4145 7.29052 39.0797C8.09924 38.714 8.95181 38.4534 9.82725 38.3042C10.5308 38.1697 11.2446 38.0955 11.9609 38.0827C15.283 38.0827 17.8128 39.0797 19.5503 41.0739C21.2877 43.068 22.1542 45.9854 22.1495 49.826C22.2002 51.7544 21.8988 53.6758 21.26 55.4969C20.7513 56.91 19.896 58.1739 18.7719 59.1736C17.6835 60.0979 16.4083 60.778 15.0328 61.1677C13.4985 61.5884 11.9118 61.7889 10.3207 61.7632ZM10.2304 56.2654C11.3183 56.3337 12.4021 56.0783 13.3439 55.5315C14.1163 55.0124 14.701 54.26 15.0119 53.385C15.3669 52.373 15.5386 51.3063 15.5193 50.2345C15.5648 48.8581 15.3283 47.487 14.8243 46.2047C14.4872 45.3034 13.8683 44.534 13.059 44.0097C12.2473 43.546 11.3259 43.3069 10.3902 43.3173C9.73113 43.326 9.07458 43.4002 8.43031 43.5389C7.76083 43.6688 7.11592 43.9024 6.51907 44.2313V54.1536C6.50558 54.3835 6.54277 54.6136 6.62801 54.8277C6.71325 55.0418 6.84449 55.2348 7.01252 55.393C7.41054 55.7263 7.89017 55.9485 8.40251 56.0369C9.00088 56.186 9.61379 56.2696 10.2304 56.2862V56.2654Z" fill="#1D1D1B"/>
<path d="M36.8696 61.7632C33.0749 61.7632 30.2208 60.75 28.3072 58.7235C26.3937 56.6971 25.4392 53.722 25.4438 49.7983C25.4438 45.5746 26.4145 42.5372 28.3559 40.6862C30.2972 38.8351 33.1351 37.9119 36.8696 37.9165C39.0522 37.8457 41.2217 38.2794 43.208 39.1837C44.913 40.0016 46.2898 41.3708 47.1138 43.0681C48.0663 45.1831 48.5158 47.4887 48.4274 49.8053C48.4274 53.7289 47.4335 56.704 45.4458 58.7304C43.4582 60.7569 40.5994 61.7678 36.8696 61.7632ZM36.8696 56.487C37.8418 56.5244 38.8008 56.2528 39.6079 55.7115C40.3711 55.1401 40.9448 54.3538 41.255 53.4543C41.6543 52.2776 41.8425 51.04 41.811 49.7983C41.8591 48.4673 41.6709 47.1382 41.255 45.8723C40.954 45.0102 40.3652 44.2769 39.587 43.7951C38.7529 43.3491 37.8158 43.1295 36.8696 43.1581C35.8956 43.1199 34.931 43.3602 34.0896 43.8505C33.3368 44.3402 32.777 45.074 32.505 45.9277C32.1234 47.1837 31.9519 48.4938 31.9977 49.8053C31.9977 52.0487 32.3892 53.7243 33.1722 54.8322C33.594 55.4023 34.1551 55.8555 34.8023 56.1488C35.4494 56.4421 36.161 56.5657 36.8696 56.5078V56.487Z" fill="#1D1D1B"/>
<path d="M63.0988 61.7632C59.3041 61.7632 56.45 60.75 54.5364 58.7235C52.6229 56.6971 51.6684 53.722 51.673 49.7983C51.673 45.5746 52.6437 42.5372 54.5851 40.6862C56.5264 38.8351 59.3643 37.9119 63.0988 37.9165C65.2814 37.8457 67.4509 38.2794 69.4371 39.1837C71.1281 40.0062 72.4918 41.3721 73.3083 43.0611C74.2608 45.1762 74.7103 47.4818 74.6218 49.7983C74.6218 53.722 73.628 56.6971 71.6403 58.7235C69.6526 60.75 66.8054 61.7632 63.0988 61.7632ZM63.0988 56.487C64.071 56.5244 65.03 56.2528 65.8371 55.7115C66.6003 55.1401 67.174 54.3538 67.4842 53.4543C67.8835 52.2776 68.0717 51.04 68.0402 49.7983C68.0883 48.4673 67.9 47.1382 67.4842 45.8723C67.1832 45.0102 66.5944 44.2769 65.8162 43.7951C64.9821 43.3491 64.045 43.1295 63.0988 43.1581C62.1248 43.1199 61.1602 43.3602 60.3188 43.8505C59.566 44.3402 59.0062 45.074 58.7342 45.9277C58.3525 47.1837 58.1811 48.4938 58.2268 49.8053C58.2268 52.0487 58.6184 53.7243 59.4014 54.8322C59.8232 55.4023 60.3843 55.8555 61.0314 56.1488C61.6786 56.4421 62.3902 56.5657 63.0988 56.5078V56.487Z" fill="#1D1D1B"/>
<path d="M85.7974 61.1193H79.2157V30.2307H85.8877L85.7974 61.1193ZM84.4074 48.7528L92.6778 38.692H100.698L88.1882 51.8478L84.4074 48.7528ZM89.4322 45.8723L101.31 61.1054H92.9002L84.7132 50.3314L89.4322 45.8723Z" fill="#1D1D1B"/>
<path d="M105.368 35.6384V30.5422H112.221V35.6384H105.368ZM105.507 61.1192V39.0035H112.131L112.179 61.1192H105.507Z" fill="#1D1D1B"/>
<path d="M118.094 40.5962C118.812 40.2394 119.555 39.9362 120.318 39.6891C121.309 39.3587 122.318 39.0859 123.341 38.8721C124.439 38.6367 125.544 38.4428 126.656 38.2974C127.681 38.1534 128.714 38.0794 129.749 38.0758C131.5 38.0335 133.245 38.2959 134.906 38.8513C136.244 39.2985 137.394 40.1783 138.172 41.3509C139.001 42.7753 139.397 44.4084 139.312 46.0524V61.1193H132.682V47.3819C132.686 46.8551 132.604 46.3312 132.439 45.8308C132.283 45.3499 132.012 44.9141 131.648 44.5617C131.285 44.2093 130.84 43.9509 130.354 43.809C129.692 43.6066 129.002 43.5107 128.31 43.5251C127.62 43.5271 126.932 43.6084 126.26 43.7675C125.724 43.8831 125.203 44.0548 124.703 44.2798V61.1193H118.08L118.094 40.5962Z" fill="#1D1D1B"/>
<path d="M153.81 61.7632C151.968 61.7094 150.164 61.2356 148.535 60.3784C147.047 59.5276 145.853 58.2483 145.108 56.7086C144.228 54.8008 143.809 52.7138 143.885 50.6154C143.822 48.5154 144.138 46.4212 144.816 44.4321C145.333 42.9496 146.229 41.6272 147.416 40.5961C148.592 39.649 149.971 38.9834 151.447 38.6505C153.166 38.2481 154.928 38.0551 156.694 38.0758C158.343 38.0437 159.985 38.2776 161.559 38.7682C162.804 39.146 163.924 39.8489 164.805 40.8039C165.583 41.7181 165.994 42.8874 165.958 44.0859V61.3962C165.988 62.817 165.733 64.2295 165.208 65.5507C164.717 66.7256 163.943 67.7622 162.956 68.5696C161.892 69.416 160.667 70.0401 159.356 70.4045C157.772 70.8427 156.134 71.0526 154.491 71.0277C152.783 71.053 151.077 70.9115 149.397 70.6053C148.277 70.4162 147.191 70.0664 146.172 69.5667V63.7574C146.617 63.9374 147.27 64.1728 148.132 64.4498C149.076 64.7621 150.043 65.0051 151.023 65.1768C152.08 65.3697 153.152 65.467 154.227 65.4676C155.331 65.5215 156.434 65.325 157.452 64.8929C158.14 64.5706 158.697 64.0233 159.029 63.3419C159.336 62.644 159.488 61.8881 159.474 61.1262V57.491L160.767 58.4189C160.295 59.0923 159.723 59.6901 159.071 60.1914C158.384 60.7149 157.61 61.1134 156.784 61.3685C155.819 61.6497 154.816 61.7828 153.81 61.7632ZM155.499 56.7986C156.217 56.8034 156.933 56.7221 157.632 56.5563C158.284 56.3922 158.913 56.1455 159.502 55.8223V45.5608C159.519 45.2999 159.48 45.0384 159.388 44.7936C159.295 44.5489 159.152 44.3265 158.967 44.1413C158.589 43.7996 158.13 43.5611 157.632 43.4489C157.077 43.3303 156.511 43.2722 155.943 43.2758C154.8 43.2133 153.668 43.5245 152.719 44.1621C151.911 44.7845 151.32 45.6445 151.03 46.6201C150.673 47.7748 150.499 48.978 150.515 50.1861C150.417 51.9116 150.907 53.6197 151.905 55.033C152.319 55.6021 152.865 56.0623 153.497 56.3736C154.13 56.6849 154.828 56.8379 155.533 56.8194L155.499 56.7986Z" fill="#1D1D1B"/>
<path d="M6.17157 20.9455V6.46716H10.7238C12.9895 6.46716 14.6922 7.07648 15.832 8.28128C16.9718 9.48608 17.5417 11.2933 17.5417 13.696C17.5417 16.0986 16.9718 17.9058 15.832 19.1175C14.6922 20.3293 12.9895 20.9455 10.7238 20.9455H6.17157ZM7.74226 19.4707H10.6196C12.4729 19.4707 13.8212 19.0091 14.6644 18.0858C15.5123 17.158 15.9293 15.697 15.9293 13.7029C15.9293 11.7087 15.5123 10.2408 14.6644 9.3199C13.8165 8.39899 12.4752 7.93507 10.6196 7.93507H7.74226V19.4707Z" fill="white"/>
<path d="M22.8793 20.9455V6.46716H24.45V20.9455H22.8793Z" fill="white"/>
<path d="M36.5151 21.1601C35.2217 21.2052 33.9385 20.9166 32.79 20.3223C31.783 19.7607 30.9894 18.8848 30.5312 17.8296C29.5296 15.1665 29.5296 12.2322 30.5312 9.56914C30.994 8.52221 31.7871 7.65432 32.79 7.09724C33.9418 6.51329 35.2235 6.2298 36.5151 6.27326C37.3044 6.27363 38.0916 6.35484 38.8642 6.51561C39.6317 6.67316 40.3781 6.91948 41.0882 7.24957V8.87673C40.3947 8.56834 39.682 8.30468 38.9546 8.08738C38.2196 7.86738 37.4563 7.75542 36.6889 7.75503C35.6453 7.71543 34.6083 7.93681 33.6726 8.39896C32.8766 8.82654 32.2549 9.51695 31.9143 10.3516C31.5044 11.4201 31.313 12.5595 31.3513 13.7028C31.3145 14.8506 31.5058 15.9942 31.9143 17.068C32.2545 17.9046 32.8761 18.5973 33.6726 19.0275C34.6083 19.4897 35.6453 19.711 36.6889 19.6715C37.2567 19.67 37.8235 19.626 38.3847 19.5399C38.9383 19.4525 39.4843 19.3229 40.0179 19.1521V14.9977H36.5429V13.5021H41.6164V20.0315C40.8299 20.4022 40.0048 20.6855 39.1561 20.8762C38.2891 21.068 37.4033 21.1632 36.5151 21.1601Z" fill="white"/>
<path d="M47.4683 20.9455V6.46716H49.039V20.9455H47.4683Z" fill="white"/>
<path d="M58.6438 20.9455V7.94893H53.5009V6.46716H65.3158V7.94893H60.1937V20.9455H58.6438Z" fill="white"/>
<path d="M67.0672 20.9455L72.8635 6.46716H74.4342L80.2026 20.9455H78.5277L73.5237 7.92123L73.8504 7.87968L68.7977 20.9455H67.0672ZM69.6178 16.431L70.3128 14.9354H77.4157L77.5269 16.431H69.6178Z" fill="white"/>
<path d="M84.6436 20.9455V6.46716H86.2074V19.4222H93.6786V20.9455H84.6436Z" fill="white"/>
</g>
<defs>
<clipPath id="clip0_47_9527">
<rect width="166" height="71" fill="white"/>
</clipPath>
</defs>
</svg>
